<?xml version="1.0" encoding="UTF-8"?>
<!DOCTYPE svg PUBLIC "-//W3C//DTD SVG 1.1//EN" "http://www.w3.org/Graphics/SVG/1.1/DTD/svg11.dtd">
<!-- Creator: CorelDRAW -->
<svg xmlns="http://www.w3.org/2000/svg" xml:space="preserve" width="109.334mm" height="65.1067mm" version="1.1" style="shape-rendering:geometricPrecision; text-rendering:geometricPrecision; image-rendering:optimizeQuality; fill-rule:evenodd; clip-rule:evenodd"
viewBox="0 0 9699.44 5775.87"
 xmlns:xlink="http://www.w3.org/1999/xlink"
 xmlns:xodm="http://www.corel.com/coreldraw/odm/2003">
 <defs>
  <style type="text/css">
   <![CDATA[
    .fil1 {fill:none}
    .fil2 {fill:#848688}
    .fil0 {fill:#373435}
    .fil4 {fill:#3266AF}
    .fil3 {fill:#00AFEF}
    .fil6 {fill:#3266AF;fill-rule:nonzero}
    .fil5 {fill:#3266AF;fill-rule:nonzero}
   ]]>
  </style>
 </defs>
 <g id="Camada_x0020_1">
  <metadata id="CorelCorpID_0Corel-Layer"/>
  <path class="fil0" d="M3947.62 2658.11c136.7,-924.67 1585.55,-960.16 1773.56,-16.07 -146.75,23.1 -300.74,102.11 -461.97,237.02 -114.98,-393.1 -641.89,-413.19 -821.5,-6.03 -177.69,-110.04 -341.05,-181.69 -490.09,-214.92z"/>
  <path class="fil0" d="M5002.11 2290.56c0,94.29 -72.84,170.72 -162.69,170.72 -89.85,0 -162.69,-76.44 -162.69,-170.72 0,-94.29 72.84,-170.73 162.69,-170.73 89.85,0 162.69,76.44 162.69,170.73zm719.07 351.48c-188.01,-944.09 -1636.86,-908.61 -1773.56,16.07 149.04,33.23 312.41,104.88 490.09,214.92 179.61,-407.15 706.52,-387.07 821.5,6.03 161.23,-134.91 315.22,-213.92 461.97,-237.02z"/>
  <path class="fil1" d="M4626.49 1254.13c0,0 -121.18,-33.48 -363.55,-100.42 0,0 188.14,-59.59 564.41,-178.77 358.86,107.12 538.29,160.69 538.29,160.69 6.7,163.36 10.04,245.04 10.04,245.04 -16.73,2.01 -25.11,3.02 -25.11,3.02 -6.7,-147.29 -10.04,-220.94 -10.04,-220.94 -192.15,58.91 -288.23,88.38 -288.23,88.38"/>
  <path class="fil0" d="M4847.41 1875.2c203.56,0 368.58,-159.81 368.58,-356.95 0,-197.12 -165.02,-356.93 -368.58,-356.93 -203.55,0 -368.56,159.81 -368.56,356.93 0,197.14 165.02,356.95 368.56,356.95z"/>
  <path class="fil0" d="M5573.98 1474.12c28.63,0 51.84,-22.47 51.84,-50.21 0,-27.72 -23.22,-50.21 -51.84,-50.21 -28.65,0 -51.85,22.49 -51.85,50.21 0,27.74 23.21,50.21 51.85,50.21z"/>
  <path class="fil0" d="M4847.42 1875.2c203.56,0 368.57,-159.81 368.57,-356.95 0,-113.7 -54.9,-214.98 -140.43,-280.34 -62.75,-47.97 -142,-76.59 -228.15,-76.59 -89.71,0 -171.93,31.03 -235.83,82.62 -81.12,65.47 -132.74,164.06 -132.74,274.31 0,197.14 165.02,356.95 368.57,356.95z"/>
  <path class="fil0" d="M4847.42 1167.4c86.15,0 165.4,28.62 228.15,76.59 39.1,-11.99 127.41,-39.07 264.96,-81.24 0,0 3.06,67.33 9.18,201.97 3.51,-0.73 7.16,-1.11 10.89,-1.11 5.02,0 9.87,0.69 14.45,1.98 -1.25,-30.48 -4.38,-107.13 -9.42,-229.95 0,0 -179.43,-53.57 -538.29,-160.69 -376.27,119.18 -564.41,178.77 -564.41,178.77 193.3,53.39 309.52,85.49 348.65,96.31 63.9,-51.59 146.12,-82.62 235.83,-82.62z"/>
  <path class="fil0" d="M5367.05 1359.51c-28.64,0 -51.84,22.48 -51.84,50.21 0,27.74 23.21,50.22 51.84,50.22 28.65,0 51.84,-22.48 51.84,-50.22 0,-27.73 -23.2,-50.21 -51.84,-50.21z"/>
  <path class="fil0" d="M4839.41 2119.83c89.87,0 162.7,76.44 162.7,170.72 0,94.29 -72.83,170.74 -162.7,170.74 -89.85,0 -162.68,-76.44 -162.68,-170.74 0,-94.29 72.83,-170.72 162.68,-170.72z"/>
  <path class="fil2" d="M4729.64 4503.99c-131.18,-788.28 -202.86,-1200.19 -215.04,-1235.73 -306.78,-327.88 -936.77,-535.85 -1889.94,-623.92 216.29,553.69 365.71,953.49 448.25,1199.39 762.45,103.96 1359.12,352.32 1656.72,660.26z"/>
  <path class="fil3" d="M4968.89 4494.9c131.18,-788.29 202.86,-1200.19 215.04,-1235.73 306.78,-327.89 936.77,-535.86 1889.94,-623.92 -216.29,553.69 -365.71,953.48 -448.25,1199.38 -762.45,103.96 -1359.12,352.32 -1656.72,660.27z"/>
  <image x="1884.59" y="3073.49" width="2589.24" height="1497.42" xlink:href="CARD-MODELO_Images\CARD-MODELO_ImgID1.png"/>
  <image x="5225.61" y="3063.24" width="2589.24" height="1499.47" xlink:href="CARD-MODELO_Images\CARD-MODELO_ImgID2.png"/>
  <polygon class="fil4" points="6383.84,5195.57 6475.7,5409.9 6568.95,5195.57 "/>
  <path class="fil4" d="M2182 4613.79c0,73.3 -12.3,141.5 -36.89,204.59 -24.58,63.09 -58.68,117.61 -102.3,163.54 -43.61,45.94 -95.57,82.12 -155.88,108.57 -60.31,26.44 -126.19,39.66 -197.64,39.66l-585.95 0 0 -1011.84 585.95 0c71.45,0 137.33,12.07 197.64,36.2 60.31,24.12 112.27,57.98 155.88,101.6 43.61,43.61 77.71,95.8 102.3,156.58 24.59,60.78 36.89,127.81 36.89,201.11zm-1125.63 -542.46l0 1105.79 632.93 0c74.82,0 147.83,-13.51 216.51,-43.62 64.72,-28.38 122.42,-67.98 171.08,-119.23 49.19,-51.82 86.09,-112.35 112,-178.83 27.65,-70.95 40.09,-145.63 40.09,-221.65 0,-75.03 -12.1,-149 -40.31,-218.73 -26.14,-64.58 -63.32,-122.87 -112.63,-172.18 -49.15,-49.15 -107.16,-86.2 -171.65,-112 -68.68,-27.47 -141.28,-39.55 -215.09,-39.55l-632.93 0z"/>
  <path class="fil4" d="M2493.76 4118.31l0 565.07c0,51.04 6.26,94.65 18.79,130.84 12.53,36.19 32.94,65.88 61.24,89.07 28.3,23.2 66.12,40.13 113.44,50.81 47.32,10.66 105.77,16 175.36,16 69.6,0 128.05,-5.34 175.37,-16 47.32,-10.67 85.13,-27.61 113.43,-50.81 28.3,-23.19 48.71,-52.88 61.24,-89.07 12.53,-36.19 18.79,-79.8 18.79,-130.84l0 -565.07 172.58 0 0 565.07c0,77.94 -10.2,145.91 -30.62,203.9 -20.41,57.99 -52.43,106.01 -96.04,144.05 -43.6,38.04 -99.97,66.34 -169.1,84.9 -69.13,18.56 -152.87,27.84 -251.22,27.84 -97.43,0 -180.7,-9.28 -249.83,-27.84 -69.13,-18.56 -125.49,-46.86 -169.11,-84.9 -43.61,-38.04 -75.62,-86.06 -96.03,-144.05 -20.41,-57.99 -30.62,-125.96 -30.62,-203.9l0 -565.07 182.32 0zm-229.3 -46.97l0 612.05c0,73.9 8.65,149.51 33.29,219.5 22.45,63.79 58.47,119.36 109.46,163.85 53.73,46.88 119.39,76.5 187.81,94.87 84.23,22.61 175.05,29.44 262.01,29.44 87.32,0 178.8,-6.72 263.4,-29.44 68.42,-18.37 134.06,-47.99 187.81,-94.87 50.99,-44.49 87.01,-100.07 109.46,-163.85 24.64,-70 33.29,-145.61 33.29,-219.5l0 -612.05 -266.55 0 0 612.05c0,38.16 -3.65,79.19 -16.2,115.46 -9.39,27.11 -24.43,49.92 -46.63,68.11 -26.31,21.57 -61.19,33.91 -93.98,41.31 -52.96,11.94 -110.88,14.85 -165.03,14.85 -54.14,0 -112.06,-2.91 -165.03,-14.85 -32.79,-7.4 -67.66,-19.74 -93.97,-41.31 -22.21,-18.2 -37.25,-41 -46.63,-68.11 -12.55,-36.27 -16.21,-77.3 -16.21,-115.46l0 -612.05 -276.28 0z"/>
  <path class="fil4" d="M3735.25 4489.92c-15.77,39.89 -23.66,83.98 -23.66,132.22 0,47.32 7.89,91.39 23.66,132.23 15.77,40.83 37.58,75.85 65.42,105.07 27.83,29.23 61,52.2 99.51,68.9 38.51,16.7 80.49,25.05 125.96,25.05l548.37 0 0 176.76 -548.37 0c-70.52,0 -135.7,-13.23 -195.54,-39.66 -59.86,-26.45 -111.82,-62.63 -155.89,-108.57 -44.07,-45.93 -78.4,-100.44 -102.99,-163.54 -24.59,-63.09 -36.89,-131.29 -36.89,-204.59 0,-74.23 12.3,-141.96 36.89,-203.2 24.59,-61.24 58.91,-113.44 102.99,-156.58 44.07,-43.15 96.03,-76.55 155.89,-100.21 59.85,-23.66 125.02,-35.49 195.54,-35.49l548.37 0 0 176.76 -548.37 0c-45.47,0 -87.45,8.12 -125.96,24.35 -38.51,16.24 -71.68,38.74 -99.51,67.51 -27.84,28.76 -49.64,63.09 -65.42,102.99zm-207.14 -96.84c-28.26,70.38 -40.26,145.07 -40.26,220.71 0,76.02 12.44,150.7 40.09,221.65 26,66.73 63.21,127.26 112.86,179.01 48.83,50.88 106.28,90.5 170.79,119 68,30.05 140.33,43.67 214.54,43.67l852.13 0 432.64 -731.55 142.67 239.55 -254.72 0 -138.24 237.31 533.82 0 151.71 254.7 322.76 0 -625.83 -1039.57c-12.33,-21.22 -27.92,-40.39 -47.54,-55.29 -22.68,-17.19 -49.5,-24.86 -77.8,-24.86 -28.24,0 -54.98,7.61 -77.89,24.41 -20.24,14.84 -36.29,34.13 -48.86,55.76l-569.49 948.25 0 -179.41 -595.35 0c-37.06,0 -73.18,-6.4 -107.26,-21.18 -31.89,-13.83 -60.21,-33.02 -84.18,-58.2 -24.67,-25.9 -42.76,-56.33 -55.61,-89.61 -14.27,-36.94 -20.5,-75.76 -20.5,-115.29 0,-39.29 5.87,-78.28 20.37,-114.95 12.91,-32.65 31.02,-62.31 55.48,-87.6 23.97,-24.76 52.26,-43.5 84.01,-56.88 34.29,-14.46 70.59,-20.66 107.7,-20.66l595.35 0 0 -270.72 -595.35 0c-73,0 -144.79,11.89 -212.82,38.78 -64.26,25.4 -122.1,61.99 -171.48,110.33 -50.15,49.09 -87.61,107.61 -113.73,172.64zm1121.55 737.07l581.78 -968.69c10.2,-17.63 22.27,-31.55 36.19,-41.76 13.92,-10.2 30.62,-15.3 50.11,-15.3 19.48,0 35.96,5.1 49.4,15.3 13.46,10.21 25.28,24.13 35.49,41.76l583.16 968.69 -212.95 0 -151.7 -254.7 -478.78 0 83.51 -143.36 310.37 0 -225.48 -378.57 -459.29 776.63 -201.82 0z"/>
  <path class="fil4" d="M6036.1 5014.45c48.82,50.88 106.27,90.5 170.79,119 36.9,16.31 75.1,27.79 114.17,34.86l154.33 360.09 152.83 -351.28 645.35 0 432.64 -731.55 142.66 239.55 -254.71 0 -138.24 237.31 533.81 0 151.71 254.7 322.77 0 -625.84 -1039.57c-12.33,-21.22 -27.92,-40.39 -47.54,-55.29 -6.67,-5.06 -13.7,-9.29 -21.03,-12.75 9.71,1.69 19.56,2.52 29.52,2.52 51.01,0 96.6,-17.72 128.66,-58.15l10.18 -12.82 0 -246.48 -85.21 119.29c-6.43,9 -15.88,16.3 -25.24,22.02 -8.84,5.4 -18.02,8.42 -28.39,8.42 -9.34,0 -18.41,-1.53 -27.09,-4.99 -12.96,-5.19 -25.7,-10.95 -38.19,-17.19 -14.86,-7.43 -29.97,-14.36 -45.29,-20.79 -20.19,-8.47 -41.51,-12.7 -63.4,-12.7 -24.85,0 -49.01,5.02 -71.5,15.6 -21.94,10.33 -40.92,25.04 -55.91,44.1l-10.03 12.78 0 258.31 86.5 -134.54c5.09,-7.91 13.72,-14.25 21.73,-18.92 9.15,-5.33 18.63,-8.21 29.22,-8.21 9.77,0 19.17,1.66 28.27,5.18 13.06,5.06 25.88,10.74 38.4,17 13.63,6.82 27.51,13.14 41.62,18.9 -6.75,-0.96 -13.64,-1.42 -20.61,-1.42 -28.24,0 -54.98,7.61 -77.89,24.41 -20.24,14.84 -36.29,34.13 -48.85,55.76l-569.5 948.25 0 -179.41 -595.35 0c-37.06,0 -73.18,-6.4 -107.26,-21.18 -31.88,-13.83 -60.21,-33.02 -84.18,-58.2 -24.67,-25.9 -42.76,-56.33 -55.61,-89.61 -14.27,-36.94 -20.5,-75.76 -20.5,-115.29 0,-39.29 5.87,-78.28 20.37,-114.95 12.91,-32.65 31.02,-62.31 55.48,-87.6 23.97,-24.76 52.26,-43.5 84.01,-56.88 34.29,-14.46 70.59,-20.66 107.7,-20.66l595.35 0 0 -270.72 -595.35 0c-72.99,0 -144.79,11.89 -212.82,38.78 -64.25,25.4 -122.1,61.99 -171.48,110.33 -50.14,49.09 -87.61,107.61 -113.72,172.64 -28.26,70.38 -40.27,145.07 -40.27,220.71 0,76.02 12.44,150.7 40.09,221.65 26,66.73 63.21,127.26 112.87,179.01zm385.32 115.7c-70.51,0 -135.7,-13.23 -195.54,-39.66 -59.85,-26.45 -111.81,-62.63 -155.88,-108.57 -44.07,-45.93 -78.41,-100.44 -103,-163.54 -24.59,-63.09 -36.88,-131.29 -36.88,-204.59 0,-74.23 12.29,-141.96 36.88,-203.2 24.59,-61.24 58.92,-113.44 103,-156.58 44.07,-43.15 96.03,-76.55 155.88,-100.21 59.85,-23.66 125.03,-35.49 195.54,-35.49l548.38 0 0 176.76 -548.38 0c-45.47,0 -87.45,8.12 -125.96,24.35 -38.5,16.24 -71.67,38.74 -99.51,67.51 -27.84,28.76 -49.64,63.09 -65.42,102.99 -15.77,39.89 -23.66,83.98 -23.66,132.22 0,47.32 7.89,91.39 23.66,132.23 15.77,40.83 37.58,75.85 65.42,105.07 27.84,29.23 61.01,52.2 99.51,68.9 38.51,16.7 80.49,25.05 125.96,25.05l548.38 0 0 176.76 -548.38 0zm825.34 0l-201.82 0 581.78 -968.69c10.2,-17.63 22.27,-31.55 36.19,-41.76 13.92,-10.2 30.62,-15.3 50.11,-15.3 19.48,0 35.96,5.1 49.4,15.3 13.46,10.21 25.28,24.13 35.49,41.76l583.16 968.69 -212.94 0 -151.71 -254.7 -478.78 0 83.51 -143.36 310.37 0 -225.47 -378.57 -459.3 776.63zm508.01 -1113.44c-13.92,-5.57 -27.84,-11.83 -41.76,-18.79 -13.92,-6.96 -28.07,-13.23 -42.45,-18.79 -14.38,-5.57 -29.46,-8.36 -45.24,-8.36 -18.56,0 -36.19,4.88 -52.89,14.62 -16.7,9.74 -29.22,21.11 -37.58,34.09l0 -82.11c10.21,-12.99 23.2,-23.2 38.97,-30.62 15.77,-7.43 32.94,-11.13 51.5,-11.13 15.77,0 30.85,3.02 45.24,9.04 14.38,6.03 28.53,12.53 42.45,19.49 13.92,6.96 27.84,13.22 41.76,18.79 13.91,5.56 28.76,8.35 44.53,8.35 18.56,0 36.19,-5.1 52.89,-15.31 16.7,-10.2 29.68,-21.81 38.96,-34.79l0 83.51c-21.34,26.92 -51.96,40.36 -91.85,40.36 -15.77,0 -30.62,-2.79 -44.53,-8.35zm-1370.93 1178.86l185.11 0 -93.25 214.33 -91.86 -214.33z"/>
  <path class="fil4" d="M1325.7 4906.41l0 -564.36 363.6 0c37.12,0 73.42,6.2 107.71,20.66 32.03,13.51 60.59,32.38 84.97,57.17 24.8,25.19 43,54.98 55.85,87.84 14.31,36.62 20.44,75.2 20.44,114.42 0,39.53 -6.24,78.35 -20.51,115.29 -12.87,33.32 -31.13,63.61 -56.03,89.33 -24.41,25.2 -53,44.53 -85.16,58.47 -34.08,14.78 -70.21,21.18 -107.26,21.18l-363.6 0zm679.54 -284.27c0,-47.32 -7.89,-91.16 -23.66,-131.52 -15.77,-40.36 -37.81,-74.93 -66.11,-103.69 -28.3,-28.77 -61.7,-51.27 -100.21,-67.51 -38.5,-16.23 -80.49,-24.35 -125.96,-24.35l-410.58 0 0 658.32 410.58 0c45.47,0 87.45,-8.35 125.96,-25.05 38.51,-16.7 71.91,-39.66 100.21,-68.9 28.3,-29.22 50.34,-64.25 66.11,-105.07 15.77,-40.84 23.66,-84.91 23.66,-132.23z"/>
  <path class="fil4" d="M959.65 4737.32l0 -242.89 -654.85 0 0 242.89 654.85 0zm-46.97 -195.91l0 148.92 -560.9 0 0 -148.92 560.9 0z"/>
  <path class="fil4" d="M269.33 4342.05l727.91 0 0 -270.72 -997.23 0 0 1105.79 998.63 0 0 -270.71 -729.3 0 0 -564.36zm-46.98 -46.98l0 658.32 729.3 0 0 176.76 -904.67 0 0 -1011.84 903.28 0 0 176.76 -727.91 0z"/>
  <path class="fil4" d="M8412.61 4407.03c-28.26,70.37 -40.26,145.07 -40.26,220.7 0,76.03 12.43,150.7 40.08,221.65 26,66.73 63.22,127.26 112.87,179.01 48.83,50.88 106.28,90.5 170.79,119.01 68,30.04 140.33,43.67 214.54,43.67l246.35 0c75.23,0 148.82,-13.33 217.89,-43.62 64.81,-28.42 122.62,-68.01 171.61,-119.06 49.65,-51.75 86.87,-112.28 112.87,-179.01 27.65,-70.95 40.09,-145.62 40.09,-221.65 0,-74.83 -11.83,-148.72 -39.5,-218.45 -25.71,-64.78 -62.72,-123.13 -112.05,-172.46 -49.32,-49.32 -107.68,-86.34 -172.46,-112.05 -69.73,-27.68 -143.62,-39.5 -218.45,-39.5l-246.35 0c-73,0 -144.8,11.89 -212.82,38.78 -64.26,25.41 -122.1,61.99 -171.48,110.33 -50.15,49.09 -87.61,107.61 -113.73,172.65zm6.72 220.7c0,-74.23 12.3,-141.96 36.89,-203.2 24.58,-61.24 58.91,-113.44 102.99,-156.58 44.07,-43.14 96.03,-76.55 155.89,-100.21 59.85,-23.66 125.02,-35.49 195.54,-35.49l246.35 0c73.3,0 140.34,12.06 201.11,36.19 60.78,24.12 112.97,57.99 156.58,101.6 43.6,43.61 77.47,95.8 101.6,156.58 24.13,60.78 36.19,127.81 36.19,201.11 0,73.3 -12.3,141.5 -36.88,204.59 -24.59,63.1 -58.92,117.61 -103,163.54 -44.07,45.93 -96.26,82.11 -156.57,108.56 -60.32,26.45 -126.66,39.66 -199.03,39.66l-246.35 0c-70.52,0 -135.7,-13.22 -195.54,-39.66 -59.86,-26.45 -111.82,-62.63 -155.89,-108.56 -44.07,-45.94 -78.41,-100.44 -102.99,-163.54 -24.59,-63.09 -36.89,-131.29 -36.89,-204.59z"/>
  <path class="fil4" d="M8910.63 4356l246.35 0c37.83,0 74.96,6.16 109.98,20.74 32.2,13.42 61.01,32.21 85.48,57.09 24.8,25.2 43,54.98 55.84,87.84 14.31,36.62 20.44,75.21 20.44,114.43 0,39.52 -6.23,78.34 -20.5,115.28 -12.87,33.33 -31.14,63.62 -56.04,89.33 -24.48,25.28 -53.32,44.53 -85.66,58.39 -34.81,14.92 -71.77,21.26 -109.54,21.26l-246.35 0c-37.06,0 -73.18,-6.4 -107.26,-21.18 -31.89,-13.83 -60.21,-33.02 -84.19,-58.2 -24.66,-25.9 -42.75,-56.32 -55.61,-89.61 -14.27,-36.94 -20.51,-75.76 -20.51,-115.28 0,-39.3 5.88,-78.29 20.37,-114.96 12.91,-32.65 31.02,-62.31 55.49,-87.6 23.97,-24.76 52.25,-43.5 84,-56.88 34.29,-14.45 70.59,-20.66 107.71,-20.66zm-225.48 44.88c-27.83,28.76 -49.64,63.09 -65.41,102.99 -15.77,39.9 -23.66,83.98 -23.66,132.23 0,47.32 7.89,91.39 23.66,132.22 15.77,40.83 37.58,75.85 65.41,105.08 27.84,29.22 61.01,52.19 99.52,68.9 38.5,16.7 80.49,25.04 125.96,25.04l246.35 0c46.39,0 89.07,-8.35 128.04,-25.04 38.97,-16.7 72.61,-39.67 100.91,-68.9 28.3,-29.23 50.34,-64.26 66.11,-105.08 15.77,-40.83 23.66,-84.9 23.66,-132.22 0,-47.33 -7.89,-91.17 -23.66,-131.53 -15.77,-40.36 -37.81,-74.93 -66.11,-103.69 -28.3,-28.77 -61.94,-51.27 -100.91,-67.5 -38.97,-16.24 -81.65,-24.36 -128.04,-24.36l-246.35 0c-45.47,0 -87.45,8.12 -125.96,24.36 -38.51,16.23 -71.68,38.73 -99.52,67.5z"/>
  <polygon class="fil4" points="222.34,4953.39 222.34,4295.07 950.25,4295.07 950.25,4118.31 46.97,4118.31 46.97,5130.15 951.64,5130.15 951.64,4953.39 "/>
  <polygon class="fil4" points="351.78,4541.42 351.78,4690.34 912.68,4690.34 912.68,4541.42 "/>
  <path class="fil4" d="M1103.35 4118.31l0 1011.84 585.95 0c71.45,0 137.33,-13.23 197.64,-39.66 60.31,-26.45 112.27,-62.63 155.88,-108.57 43.61,-45.93 77.71,-100.44 102.3,-163.54 24.59,-63.09 36.89,-131.29 36.89,-204.59 0,-73.3 -12.3,-140.34 -36.89,-201.11 -24.58,-60.78 -58.68,-112.97 -102.3,-156.58 -43.61,-43.61 -95.57,-77.47 -155.88,-101.6 -60.31,-24.13 -126.19,-36.2 -197.64,-36.2l-585.95 0zm175.37 176.76l410.58 0c45.47,0 87.45,8.12 125.96,24.35 38.51,16.24 71.91,38.74 100.21,67.51 28.3,28.76 50.34,63.32 66.11,103.69 15.77,40.36 23.66,84.2 23.66,131.52 0,47.32 -7.89,91.39 -23.66,132.23 -15.77,40.83 -37.81,75.85 -66.11,105.07 -28.3,29.23 -61.7,52.2 -100.21,68.9 -38.5,16.7 -80.49,25.05 -125.96,25.05l-410.58 0 0 -658.32z"/>
  <path class="fil4" d="M2311.43 4118.31l0 565.07c0,77.94 10.21,145.91 30.62,203.9 20.41,57.99 52.42,106.01 96.03,144.05 43.61,38.04 99.98,66.34 169.11,84.9 69.13,18.56 152.4,27.84 249.83,27.84 98.35,0 182.09,-9.28 251.22,-27.84 69.13,-18.56 125.49,-46.86 169.1,-84.9 43.61,-38.04 75.63,-86.06 96.04,-144.05 20.41,-57.99 30.62,-125.96 30.62,-203.9l0 -565.07 -172.58 0 0 565.07c0,51.04 -6.26,94.65 -18.79,130.84 -12.53,36.19 -32.94,65.88 -61.24,89.07 -28.3,23.2 -66.11,40.13 -113.43,50.81 -47.32,10.66 -105.77,16 -175.37,16 -69.59,0 -128.04,-5.34 -175.36,-16 -47.32,-10.67 -85.14,-27.61 -113.44,-50.81 -28.3,-23.19 -48.71,-52.88 -61.24,-89.07 -12.53,-36.19 -18.79,-79.8 -18.79,-130.84l0 -565.07 -182.32 0z"/>
  <path class="fil4" d="M3534.82 4613.79c0,73.3 12.3,141.5 36.89,204.59 24.59,63.09 58.91,117.61 102.99,163.54 44.07,45.94 96.03,82.12 155.89,108.57 59.85,26.44 125.02,39.66 195.54,39.66l548.37 0 0 -176.76 -548.37 0c-45.47,0 -87.45,-8.35 -125.96,-25.05 -38.51,-16.7 -71.68,-39.66 -99.51,-68.9 -27.84,-29.22 -49.64,-64.25 -65.42,-105.07 -15.77,-40.84 -23.66,-84.91 -23.66,-132.23 0,-48.24 7.89,-92.32 23.66,-132.22 15.77,-39.89 37.58,-74.23 65.42,-102.99 27.83,-28.77 61,-51.27 99.51,-67.51 38.51,-16.23 80.49,-24.35 125.96,-24.35l548.37 0 0 -176.76 -548.37 0c-70.52,0 -135.7,11.83 -195.54,35.49 -59.86,23.66 -111.82,57.06 -155.89,100.21 -44.07,43.14 -78.4,95.34 -102.99,156.58 -24.59,61.24 -36.89,128.97 -36.89,203.2z"/>
  <path class="fil4" d="M5231.43 4161.46l-581.78 968.69 201.82 0 459.29 -776.63 225.48 378.57 -310.37 0 -83.51 143.36 478.78 0 151.7 254.7 212.95 0 -583.16 -968.69c-10.21,-17.63 -22.04,-31.55 -35.49,-41.76 -13.45,-10.2 -29.92,-15.3 -49.4,-15.3 -19.49,0 -36.19,5.1 -50.11,15.3 -13.92,10.21 -25.98,24.13 -36.19,41.76z"/>
  <path class="fil4" d="M5967 4818.38c24.59,63.09 58.92,117.61 103,163.54 44.07,45.94 96.03,82.12 155.88,108.57 59.85,26.44 125.03,39.66 195.54,39.66l548.38 0 0 -176.76 -548.38 0c-45.47,0 -87.45,-8.35 -125.96,-25.05 -38.5,-16.7 -71.67,-39.66 -99.51,-68.9 -27.84,-29.22 -49.64,-64.25 -65.42,-105.07 -15.77,-40.84 -23.66,-84.91 -23.66,-132.23 0,-48.24 7.89,-92.32 23.66,-132.22 15.77,-39.89 37.58,-74.23 65.42,-102.99 27.84,-28.77 61.01,-51.27 99.51,-67.51 38.51,-16.23 80.49,-24.35 125.96,-24.35l548.38 0 0 -176.76 -548.38 0c-70.51,0 -135.7,11.83 -195.54,35.49 -59.85,23.66 -111.81,57.06 -155.88,100.21 -44.07,43.14 -78.41,95.34 -103,156.58 -24.59,61.24 -36.88,128.97 -36.88,203.2 0,73.3 12.29,141.5 36.88,204.59z"/>
  <path class="fil4" d="M8016.42 4875.45l151.71 254.7 212.94 0 -583.16 -968.69c-10.21,-17.63 -22.04,-31.55 -35.49,-41.76 -13.45,-10.2 -29.92,-15.3 -49.4,-15.3 -19.49,0 -36.19,5.1 -50.11,15.3 -13.92,10.21 -25.98,24.13 -36.19,41.76l-581.78 968.69 201.82 0 459.3 -776.63 225.47 378.57 -310.37 0 -83.51 143.36 478.78 0z"/>
  <path class="fil4" d="M7799.3 4025.06c39.89,0 70.52,-13.45 91.85,-40.36l0 -83.51c-9.28,12.99 -22.27,24.59 -38.96,34.79 -16.7,10.21 -34.33,15.31 -52.89,15.31 -15.77,0 -30.62,-2.79 -44.53,-8.35 -13.92,-5.57 -27.84,-11.83 -41.76,-18.79 -13.92,-6.96 -28.07,-13.46 -42.45,-19.49 -14.38,-6.02 -29.46,-9.04 -45.24,-9.04 -18.56,0 -35.73,3.71 -51.5,11.13 -15.77,7.42 -28.76,17.63 -38.97,30.62l0 82.11c8.36,-12.99 20.88,-24.35 37.58,-34.09 16.7,-9.74 34.33,-14.62 52.89,-14.62 15.77,0 30.85,2.79 45.24,8.36 14.38,5.56 28.53,11.83 42.45,18.79 13.92,6.96 27.84,13.22 41.76,18.79 13.91,5.56 28.76,8.35 44.53,8.35z"/>
  <path class="fil4" d="M8559.2 4267.96c-44.07,43.14 -78.41,95.34 -102.99,156.58 -24.59,61.24 -36.89,128.97 -36.89,203.2 0,73.3 12.3,141.5 36.89,204.59 24.58,63.1 58.91,117.61 102.99,163.54 44.07,45.93 96.03,82.11 155.89,108.56 59.85,26.45 125.02,39.66 195.54,39.66l246.35 0c72.37,0 138.71,-13.22 199.03,-39.66 60.31,-26.45 112.5,-62.63 156.57,-108.56 44.07,-45.94 78.41,-100.44 103,-163.54 24.58,-63.09 36.88,-131.29 36.88,-204.59 0,-73.3 -12.06,-140.34 -36.19,-201.11 -24.12,-60.78 -57.99,-112.97 -101.6,-156.58 -43.61,-43.6 -95.8,-77.47 -156.58,-101.6 -60.78,-24.13 -127.81,-36.19 -201.11,-36.19l-246.35 0c-70.52,0 -135.7,11.83 -195.54,35.49 -59.86,23.66 -111.82,57.07 -155.89,100.21zm36.89 368.14c0,-48.25 7.89,-92.32 23.66,-132.23 15.77,-39.89 37.58,-74.23 65.41,-102.99 27.84,-28.77 61.01,-51.27 99.52,-67.5 38.5,-16.24 80.49,-24.36 125.96,-24.36l246.35 0c46.39,0 89.07,8.12 128.04,24.36 38.97,16.23 72.61,38.73 100.91,67.5 28.3,28.76 50.34,63.32 66.11,103.69 15.77,40.36 23.66,84.2 23.66,131.53 0,47.32 -7.89,91.39 -23.66,132.22 -15.77,40.83 -37.81,75.85 -66.11,105.08 -28.3,29.22 -61.94,52.19 -100.91,68.9 -38.97,16.7 -81.65,25.04 -128.04,25.04l-246.35 0c-45.47,0 -87.45,-8.35 -125.96,-25.04 -38.51,-16.7 -71.68,-39.67 -99.52,-68.9 -27.83,-29.23 -49.64,-64.26 -65.41,-105.08 -15.77,-40.83 -23.66,-84.9 -23.66,-132.22z"/>
  <path class="fil5" d="M9122.88 3632.13l74.29 -19.68 74.1 279.79 -74.29 19.68 -74.1 -279.79zm-259.64 -93.96l504.74 -133.68 119.34 450.58 -88.19 23.36 -96.17 -363.09 -328.37 86.98 96.36 363.81 -88.16 23.35 -119.53 -451.3z"/>
  <path class="fil5" d="M8623.36 2956.98l482.11 -200.51 116.12 279.21c14.16,34.04 21.46,67.79 21.91,101.31 0.45,33.52 -5.39,64.99 -17.54,94.42 -12.14,29.44 -30.22,55.99 -54.33,79.77 -24.09,23.78 -53.57,42.89 -88.53,57.43 -34.9,14.51 -69.8,22.18 -104.75,22.95 -34.97,0.78 -67.7,-4.64 -98.18,-16.34 -30.54,-11.68 -58.08,-29.26 -82.63,-52.76 -24.56,-23.5 -43.9,-52.24 -58.06,-86.28l-116.12 -279.2zm200.32 244.18c9.01,21.66 21.34,40.01 36.92,55.06 15.59,15.03 33.14,26.39 52.64,34.1 19.53,7.67 40.59,11.22 63.19,10.66 22.56,-0.59 45.15,-5.55 67.68,-14.93 22.53,-9.37 41.86,-21.83 58.01,-37.34 16.08,-15.53 28.18,-32.87 36.28,-52.04 8.1,-19.19 12.2,-39.56 12.29,-61.11 0.1,-21.58 -4.36,-43.19 -13.37,-64.85l-81.36 -195.63 -313.65 130.44 81.36 195.63z"/>
  <polygon class="fil5" points="8300.79,2390.93 8736.03,2102.49 8786.44,2178.56 8427.23,2416.61 8621.24,2709.37 8545.22,2759.75 "/>
  <path class="fil5" d="M8229.81 2261.27l41.5 -147.27 -170 -179.26 83.31 -19.64 110.23 116.22 61.67 -218.84 -453.87 103.82 -71.66 -75.57 569.29 -126.18c10.2,-2.4 19.69,-2.82 28.45,-1.24 8.77,1.56 16.62,6.01 23.54,13.31 6.92,7.29 10.84,15.25 11.8,23.95 0.94,8.65 -0.05,18.03 -2.99,28.09l-155.65 562.31 -75.61 -79.72z"/>
  <path class="fil5" d="M7749.05 1549.91l60.01 -64.78 153.88 142.51c23.54,21.8 48.08,32.11 73.58,30.94 25.55,-1.13 48.41,-12.61 68.58,-34.39 20.51,-22.14 30.17,-45.79 29.04,-71.02 -1.11,-25.18 -13.46,-48.64 -36.99,-70.45l-202.89 -187.9 -292.79 316.14 -66.39 -61.49 354.78 -383.08 269.28 249.39c22.11,20.48 38.87,42.04 50.25,64.65 11.33,22.57 17.56,45.32 18.61,68.15 1.01,22.8 -3.1,45.59 -12.39,68.29 -9.28,22.7 -23.7,44.65 -43.19,65.7 -19.19,20.71 -39.87,36.67 -61.96,47.83 -22.13,11.21 -44.84,17.4 -68.11,18.65 -23.37,1.25 -46.92,-2.79 -70.61,-12.01 -23.76,-9.24 -46.67,-24.17 -68.79,-44.64l-153.88 -142.52z"/>
  <polygon class="fil5" points="7348.68,1397.76 7656.3,975.85 7730.04,1029.61 7422.42,1451.52 "/>
  <path class="fil5" d="M7010.78 1159.96c-31.21,-18.76 -56.51,-41.94 -75.95,-69.54 -19.43,-27.6 -32.82,-57.44 -40.07,-89.46 -7.34,-32 -8.05,-65.26 -2.09,-99.7 5.89,-34.47 18.58,-67.87 38.05,-100.26 19.73,-32.83 43.17,-59.54 70.35,-80.11 27.1,-20.56 56.18,-34.51 87.17,-41.86 30.93,-7.39 62.83,-8.32 95.57,-2.88 32.75,5.45 64.73,17.52 95.94,36.28l242.54 145.76 -47 78.2 -242.53 -145.76c-20.16,-12.11 -40.84,-19.66 -62.19,-22.73 -21.34,-3.06 -42.01,-1.94 -61.95,3.39 -19.99,5.31 -38.77,14.71 -56.32,28.16 -17.57,13.5 -32.78,30.85 -45.61,52.21 -12.57,20.92 -20.79,42.53 -24.69,64.76 -3.9,22.25 -3.56,43.55 1,63.9 4.55,20.28 13.13,39.26 25.72,56.88 12.6,17.63 28.89,32.48 49.05,44.59l242.54 145.76 -46.98 78.17 -242.54 -145.76z"/>
  <polygon class="fil5" points="6594.17,951.16 6819.96,480.37 6902.24,519.83 6676.45,990.62 "/>
  <path class="fil5" d="M6208.43 375.63l-135.02 357.43 -81.32 -30.71 167.52 -443.45c5.92,-15.65 14.52,-26.61 25.82,-32.83 11.34,-6.21 23.69,-6.75 37.11,-1.69 6.28,2.38 11.85,5.97 16.66,10.88 4.8,4.91 9.13,11.64 13.03,20.32l215.5 472.14 135.01 -357.42 81.3 30.71 -169.03 447.45c-6.09,16.12 -14.73,27.17 -25.98,33.15 -11.23,6.03 -23.12,6.65 -35.66,1.92 -13.87,-5.24 -24.58,-16.21 -32.08,-32.89l-212.86 -475z"/>
  <path class="fil5" d="M5959.41 162.86l87.09 18.66 -61.09 285.16c-8.41,39.29 -20.93,72.48 -37.52,99.54 -16.55,27.07 -37.91,47.82 -63.98,62.29 -26.12,14.47 -57.64,22.69 -94.51,24.58 -36.88,1.88 -80.15,-2.49 -129.78,-13.13 -49.14,-10.52 -90.18,-24.21 -123.04,-41.02 -32.87,-16.83 -58.24,-37.24 -76.16,-61.14 -17.89,-23.9 -28.88,-51.58 -32.88,-83.05 -4.01,-31.48 -1.83,-66.87 6.59,-106.16l61.08 -285.16 92 19.7 -61.09 285.16c-5.5,25.71 -7.04,48.4 -4.68,68.01 2.42,19.62 9.54,36.78 21.3,51.58 11.76,14.75 29.03,27.37 51.73,37.89 22.71,10.5 51.65,19.51 86.77,27.03 35.1,7.52 65.14,11.15 90.21,10.88 25.03,-0.29 45.89,-4.74 62.73,-13.36 16.78,-8.69 30.25,-21.44 40.5,-38.35 10.24,-16.9 18.12,-38.24 23.63,-63.95l61.08 -285.16z"/>
  <path class="fil5" d="M5265.01 552.63l-81.62 -371.48 -164.53 331.97c-5.81,10.73 -12.55,18.93 -20.26,24.53 -7.71,5.62 -17.06,8.14 -28.05,7.59 -21.54,-1.06 -36.49,-13.32 -44.92,-36.73l-130.27 -346.56 -117.87 361.62 -89.65 -4.44 158.39 -484.03c7.45,-24.51 23.13,-36.2 47.06,-35.02 9.55,0.47 18.38,3.5 26.53,9.19 8.1,5.69 14.04,13.66 17.88,23.93l142.39 376.62 178.92 -360.73c9.63,-20.17 24.77,-29.69 45.31,-28.68 21.99,1.09 35.95,14.25 41.89,39.42l109.15 497.27 -90.35 -4.46z"/>
  <path class="fil5" d="M4345.04 537.98l-100.94 -114.87 -242.75 45.11 28.83 -80.55 157.39 -29.25 -149.99 -170.69 -159.69 437.06 -102.34 19.01 203.7 -545.99c3.53,-9.86 8.34,-18.05 14.42,-24.55 6.09,-6.5 14.07,-10.66 23.95,-12.5 9.89,-1.84 18.68,-0.8 26.5,3.12 7.77,3.92 15.1,9.86 21.94,17.79l386.93 436.24 -107.96 20.07z"/>
  <polygon class="fil5" points="3649.38,672.06 3521,166.27 3609.4,143.83 3737.78,649.63 "/>
  <path class="fil5" d="M3519.74 712.32l-175.27 -88.04 -182.25 69.98 -28.81 -75.04 203.03 -77.95c30.81,-11.83 50.83,-29.12 60.07,-51.86 9.17,-22.77 7.69,-49.98 -4.5,-81.72 -12.16,-31.69 -29.35,-52.13 -51.58,-61.29 -22.24,-9.16 -48.05,-8.06 -77.56,3.26l-265.35 101.89 154.36 402.02 -84.43 32.42 -187.04 -487.15 349.78 -134.3c27.71,-10.64 54.11,-16.03 79.16,-16.16 25.07,-0.14 48.16,4.6 69.22,14.16 21.11,9.6 39.89,23.78 56.33,42.56 16.45,18.81 29.92,41.84 40.38,69.07 15.6,40.66 19.86,78.11 12.74,112.36 -7.11,34.25 -24.19,63.52 -51.26,87.72l203.63 91.77 -120.64 46.32z"/>
  <path class="fil5" d="M2948.44 935.36l-136.14 -69.62 -209.08 131.35 -2.86 -85.5 135.56 -85.17 -202.32 -103.46 12.5 465.14 -88.15 55.38 -11.7 -582.64c-0.35,-10.48 1.11,-19.85 4.37,-28.13 3.26,-8.29 9.15,-15.1 17.66,-20.45 8.52,-5.35 17.09,-7.62 25.8,-6.86 8.66,0.79 17.66,3.6 26.94,8.46l520.4 263.07 -92.99 58.42z"/>
  <polygon class="fil5" points="2287.03,1349.69 2026.02,1007.14 1868.44,1127.21 1813.18,1054.68 2200.85,759.29 2256.11,831.83 2098.53,951.9 2359.52,1294.44 "/>
  <path class="fil5" d="M1720.78 1825.32l-351.59 -385.61 344.23 -313.85 61.43 67.38 -277.4 252.92 228.74 250.87 277.95 -253.42 61.42 67.35 -344.78 314.36zm-36.65 -273.51l-51.76 -56.76 213.76 -194.9 51.76 56.77 -213.76 194.89z"/>
  <path class="fil5" d="M1621.23 1945.39l-196.03 6.27 -126.77 148.49 -61.13 -52.2 141.22 -165.41c21.42,-25.1 30.77,-49.85 28.02,-74.24 -2.8,-24.4 -17.1,-47.6 -42.96,-69.67 -25.82,-22.05 -50.66,-31.8 -74.57,-29.25 -23.92,2.55 -46.07,15.84 -66.6,39.88l-184.56 216.17 327.51 279.63 -58.73 68.79 -396.86 -338.83 243.29 -284.96c19.27,-22.56 39.89,-39.9 61.85,-51.98 21.96,-12.08 44.52,-18.95 67.58,-20.58 23.15,-1.65 46.41,1.85 69.82,10.52 23.43,8.68 46.26,22.47 68.45,41.42 33.12,28.27 54.74,59.16 64.83,92.65 10.09,33.49 9.05,67.35 -3.19,101.55l222.73 -16.55 -83.91 98.29z"/>
  <path class="fil5" d="M1089.39 2660.22c-20.29,30.2 -44.69,54.28 -73.22,72.3 -28.54,18.01 -58.99,29.87 -91.31,35.51 -32.31,5.7 -65.54,4.73 -99.62,-2.95 -34.1,-7.61 -66.8,-21.96 -98.16,-43.03 -31.78,-21.34 -57.26,-46.08 -76.42,-74.24 -19.15,-28.09 -31.62,-57.81 -37.41,-89.1 -5.81,-31.25 -5.15,-63.13 1.93,-95.55 7.09,-32.42 20.75,-63.72 41.04,-93.92l157.69 -234.75 75.69 50.85 -157.69 234.75c-13.09,19.5 -21.67,39.76 -25.8,60.92 -4.14,21.15 -4.06,41.83 0.26,62 4.3,20.22 12.73,39.43 25.27,57.64 12.59,18.22 29.14,34.27 49.81,48.15 20.24,13.6 41.4,22.89 63.4,27.89 22.01,5.02 43.28,5.75 63.82,2.22 20.48,-3.51 39.85,-11.12 58.08,-22.81 18.22,-11.69 33.86,-27.21 46.97,-46.71l157.69 -234.75 75.66 50.82 -157.69 234.75z"/>
  <path class="fil5" d="M619.08 3159.35l-70.32 -30.89 116.33 -264.82 70.33 30.89 -116.34 264.82zm144.42 235.15l-477.77 -209.88 187.35 -426.49 83.48 36.67 -150.97 343.68 310.83 136.55 151.28 -344.36 83.45 36.66 -187.65 427.18z"/>
  <path class="fil5" d="M542.32 4066.56l-86.3 -30.85 132.42 -370.38c8.25,-23.09 8.71,-42.96 1.39,-59.66 -7.33,-16.65 -20.75,-28.48 -40.21,-35.44 -21.3,-7.61 -39.5,-7.09 -54.6,1.53 -15.07,8.69 -26.74,24.56 -35,47.66l-81.14 226.97c-8.26,23.09 -19.3,42.8 -33.05,59.09 -13.73,16.29 -29.16,28.64 -46.22,37.1 -17.05,8.46 -35.48,13.16 -55.18,14.03 -19.76,0.86 -39.81,-2.38 -60.17,-9.65 -19.93,-7.13 -37.24,-16.99 -51.84,-29.66 -14.67,-12.62 -25.8,-27.62 -33.39,-44.89 -7.64,-17.3 -11.54,-36.7 -11.76,-58.21 -0.21,-21.55 4.04,-44.59 12.78,-69.05l126.8 -354.68 86.33 30.86 -126.8 354.68c-7.12,19.93 -7.31,37.25 -0.59,51.93 6.75,14.69 19.66,25.42 38.71,32.22 19.04,6.81 35.73,6.51 50.11,-0.84 14.39,-7.41 25,-20.56 31.8,-39.6l80.91 -226.31c17.98,-50.28 43.41,-84.25 76.28,-101.83 32.82,-17.65 73.3,-17.85 121.32,-0.68 20.83,7.44 38.94,17.47 54.35,30.11 15.4,12.68 27.31,27.67 35.69,44.97 8.38,17.29 12.7,36.86 13.08,58.73 0.38,21.82 -4.04,45.64 -13.27,71.48l-132.41 370.37z"/>
  <path class="fil6" d="M209.78 5718.23c-24.75,0 -47.63,-4.65 -68.64,-13.93 -21,-9.29 -39.23,-21.98 -54.7,-38.1 -15.48,-16.12 -27.54,-35.25 -36.15,-57.41 -8.63,-22.13 -12.95,-46.07 -12.95,-71.8 0,-26.06 4.32,-49.83 12.95,-71.33 8.61,-21.5 20.67,-39.81 36.15,-54.94 15.47,-15.14 33.7,-26.89 54.7,-35.19 21.01,-8.3 43.89,-12.45 68.64,-12.45l192.47 0 0 62.04 -192.47 0c-15.96,0 -30.7,2.85 -44.22,8.55 -13.5,5.69 -25.14,13.6 -34.91,23.69 -9.78,10.1 -17.43,22.15 -22.96,36.16 -5.55,13.99 -8.3,29.46 -8.3,46.41 0,16.61 2.75,32.08 8.3,46.41 5.53,14.34 13.18,26.62 22.96,36.89 9.77,10.26 21.41,18.33 34.91,24.18 13.52,5.86 28.26,8.79 44.22,8.79l192.47 0 0 62.04 -192.47 0zm560.32 -355.15l60.59 0 0 198.34c0,27.35 -3.59,51.21 -10.76,71.57 -7.16,20.36 -18.39,37.2 -33.71,50.57 -15.29,13.34 -35.09,23.29 -59.35,29.79 -24.25,6.51 -53.65,9.78 -88.18,9.78 -34.19,0 -63.42,-3.26 -87.68,-9.78 -24.27,-6.5 -44.04,-16.45 -59.36,-29.79 -15.29,-13.37 -26.53,-30.21 -33.7,-50.57 -7.15,-20.36 -10.74,-44.22 -10.74,-71.57l0 -198.34 64.01 0 0 198.34c0,17.91 2.18,33.21 6.58,45.91 4.39,12.7 11.57,23.14 21.49,31.28 9.94,8.13 23.22,14.07 39.82,17.82 16.61,3.75 37.12,5.62 61.54,5.62 24.42,0 44.96,-1.87 61.57,-5.62 16.61,-3.75 29.88,-9.7 39.8,-17.82 9.94,-8.14 17.12,-18.58 21.51,-31.28 4.4,-12.69 6.58,-28 6.58,-45.91l0 -198.34zm116.77 355.15l0 -355.15 62.06 0 0 293.11 238.87 0 0 62.04 -300.93 0zm404.5 0l0 -293.11 -134.84 0 0 -62.04 331.7 0 0 62.04 -134.83 0 0 293.11 -62.04 0zm555.44 -355.15l60.58 0 0 198.34c0,27.35 -3.59,51.21 -10.76,71.57 -7.15,20.36 -18.39,37.2 -33.7,50.57 -15.3,13.34 -35.1,23.29 -59.36,29.79 -24.25,6.51 -53.65,9.78 -88.18,9.78 -34.19,0 -63.42,-3.26 -87.68,-9.78 -24.26,-6.5 -44.04,-16.45 -59.36,-29.79 -15.29,-13.37 -26.53,-30.21 -33.7,-50.57 -7.15,-20.36 -10.74,-44.22 -10.74,-71.57l0 -198.34 64.01 0 0 198.34c0,17.91 2.18,33.21 6.58,45.91 4.39,12.7 11.57,23.14 21.5,31.28 9.94,8.13 23.21,14.07 39.81,17.82 16.61,3.75 37.13,5.62 61.54,5.62 24.42,0 44.96,-1.87 61.57,-5.62 16.61,-3.75 29.88,-9.7 39.8,-17.82 9.95,-8.14 17.12,-18.58 21.51,-31.28 4.4,-12.69 6.59,-28 6.59,-45.91l0 -198.34zm446.51 355.15l-89.88 -98.69 -132.88 0 0 -54.71 148.03 0c22.46,0 39.41,-6.09 50.8,-18.33 11.39,-12.21 17.1,-29.87 17.1,-52.99 0,-23.13 -5.94,-40.3 -17.82,-51.54 -11.9,-11.23 -28.58,-16.86 -50.07,-16.86l-193.45 0 0 293.11 -61.57 0 0 -355.15 255.02 0c20.18,0 38.25,3.01 54.21,9.03 15.97,6.03 29.49,14.65 40.54,25.9 11.08,11.23 19.54,24.83 25.4,40.77 5.88,15.97 8.82,33.88 8.82,53.75 0,29.62 -6.45,54.45 -19.3,74.5 -12.86,20.02 -30.85,34.42 -53.99,43.22l107 107.96 -87.94 0zm490.46 0l-53.24 -89.41 -168.05 0 29.31 -50.31 108.94 0 -79.15 -132.88 -161.21 272.6 -70.82 0 204.19 -340.01c3.59,-6.19 7.82,-11.08 12.69,-14.66 4.89,-3.59 10.75,-5.38 17.59,-5.38 6.86,0 12.62,1.78 17.34,5.38 4.73,3.58 8.87,8.46 12.46,14.66l204.69 340.01 -74.76 0zm115.3 57.64l0 -127 62.53 0 -24.44 127 -38.09 0zm570.28 -57.64l0 -355.15 317.05 0 0 62.04 -255.48 0 0 231.07 255.97 0 0 62.04 -317.53 0zm106.99 -154.37l0 -52.27 196.87 0 0 52.27 -196.87 0zm263.79 154.37l0 -62.04 266.25 0c16.61,0 29.4,-4.24 38.35,-12.69 8.95,-8.46 13.42,-19.71 13.42,-33.73 0,-15.29 -4.61,-26.92 -13.42,-34.42 -8.84,-7.52 -22.02,-11.49 -38.35,-11.49l-163.16 0c-16.34,0 -31.81,-2.66 -45.2,-7.56 -13.38,-4.92 -25.04,-12.2 -34.19,-21.03 -9.15,-8.82 -16.59,-19.76 -21.49,-31.99 -4.92,-12.24 -7.59,-25.89 -7.59,-40.56 0,-14.32 2.5,-27.72 7.1,-39.8 4.57,-12.07 11.72,-22.72 21,-31.51 9.28,-8.8 20.88,-15.85 34.45,-20.78 13.54,-4.9 29.3,-7.56 46.89,-7.56l254.99 0 0 62.04 -254.99 0c-14.07,0 -25.54,3.97 -33.21,11.49 -7.68,7.5 -11.73,18.3 -11.73,31.98 0,13.7 3.98,24.29 11.96,31.77 7.98,7.49 18.82,11.23 32.5,11.23l162.67 0c36.14,0 63.71,8.61 82.31,25.41 18.59,16.8 28.1,42.64 28.1,77.17 0,14.98 -2.42,28.97 -6.86,41.54 -4.41,12.56 -11.52,23.82 -20.51,32.97 -8.97,9.14 -20.73,16.66 -34.43,21.74 -13.72,5.08 -30.32,7.82 -48.61,7.82l-266.25 0zm536.89 -98.69l0 -60.09 142.65 0c21.82,0 38.95,-6.33 51.05,-18.56 12.07,-12.23 18.3,-28.66 18.3,-48.85 0,-20.54 -6.09,-36.83 -18.3,-48.86 -12.22,-12.04 -29.51,-18.07 -51.05,-18.07l-188.07 0 0 293.11 -61.57 0 0 -355.15 249.64 0c20.51,0 38.84,3.01 54.96,9.03 16.12,6.01 29.72,14.51 40.78,25.42 11.05,10.9 19.67,24.31 25.4,39.8 5.74,15.5 8.81,33.21 8.81,52.78 0,19.21 -2.95,36.73 -8.81,52.5 -5.86,15.76 -14.35,29.4 -25.4,40.79 -11.06,11.39 -24.8,20.42 -40.78,26.63 -16,6.21 -34.72,9.52 -54.96,9.52l-142.65 0zm478.74 98.69c-24.2,0 -47.63,-4.65 -68.64,-13.93 -21,-9.29 -39.23,-21.98 -54.7,-38.1 -15.48,-16.12 -27.54,-35.26 -36.15,-57.41 -8.61,-22.13 -12.95,-46.07 -12.95,-71.8 0,-26.06 4.45,-49.96 12.95,-71.33 8.48,-21.36 20.67,-39.81 36.15,-54.94 15.47,-15.14 33.7,-26.89 54.7,-35.19 21.01,-8.3 43.89,-12.45 68.64,-12.45l86.48 0c25.74,0 49.4,4.37 70.59,12.7 21.18,8.32 39.65,20.36 54.94,35.65 15.32,15.32 27.34,33.76 35.68,54.96 8.32,21.2 12.7,44.86 12.7,70.6 0,25.73 -4.46,49.8 -12.96,71.8 -8.5,22.02 -20.67,41.29 -36.14,57.41 -15.47,16.12 -33.92,28.96 -54.96,38.1 -21.03,9.14 -44.73,13.93 -69.85,13.93l-86.48 0zm86.48 -62.04c16.28,0 31.26,-2.93 44.94,-8.79 13.67,-5.86 25.61,-14.06 35.42,-24.18 9.79,-10.12 17.65,-22.57 23.19,-36.89 5.53,-14.33 8.3,-29.8 8.3,-46.41 0,-16.61 -2.89,-32.14 -8.3,-46.17 -5.39,-14.03 -13.27,-26.32 -23.19,-36.4 -9.93,-10.09 -21.89,-18.13 -35.42,-23.69 -13.55,-5.56 -28.94,-8.55 -44.94,-8.55l-86.48 0c-15.68,0 -30.83,2.99 -44.22,8.55 -13.36,5.55 -25.28,13.74 -34.91,23.69 -9.63,9.96 -17.43,22.17 -22.96,36.16 -5.53,13.99 -8.3,29.46 -8.3,46.41 0,16.61 2.78,32.08 8.3,46.41 5.53,14.32 13.18,26.62 22.96,36.89 9.77,10.26 21.55,18.46 34.91,24.18 13.39,5.73 28.26,8.79 44.22,8.79l86.48 0zm553.97 62.04l-89.88 -98.69 -132.88 0 0 -54.71 148.02 0c22.47,0 39.55,-6.24 50.81,-18.33 11.25,-12.07 17.1,-29.87 17.1,-52.99 0,-23.13 -6.08,-40.44 -17.82,-51.54 -11.76,-11.1 -28.86,-16.86 -50.08,-16.86l-193.45 0 0 293.11 -61.56 0 0 -355.15 255.01 0c20.18,0 38.4,3.15 54.22,9.03 15.83,5.9 29.48,14.67 40.54,25.9 11.05,11.23 19.68,24.97 25.4,40.77 5.74,15.83 8.81,33.88 8.81,53.75 0,29.62 -6.58,54.59 -19.3,74.5 -12.71,19.89 -30.85,34.42 -53.98,43.22l106.99 107.96 -87.94 0zm226.2 0l0 -293.11 -134.84 0 0 -62.04 331.7 0 0 62.04 -134.84 0 0 293.11 -62.03 0zm237.9 0l0 -355.15 317.05 0 0 62.04 -255.48 0 0 231.07 255.97 0 0 62.04 -317.53 0zm106.99 -154.37l0 -52.27 196.87 0 0 52.27 -196.87 0zm671.43 154.37l0 -355.15 317.05 0 0 62.04 -255.48 0 0 231.07 255.97 0 0 62.04 -317.53 0zm106.99 -154.37l0 -52.27 196.87 0 0 52.27 -196.87 0zm820.4 154.37l0 -355.15 62.05 0 0 293.11 238.88 0 0 62.04 -300.93 0zm715.66 0l-53.25 -89.41 -168.04 0 29.3 -50.31 108.95 0 -79.15 -132.88 -161.21 272.6 -70.83 0 204.19 -340.01c3.6,-6.19 7.94,-11.18 12.7,-14.66 4.79,-3.48 10.74,-5.38 17.58,-5.38 6.86,0 12.72,1.9 17.35,5.38 4.61,3.48 8.87,8.46 12.46,14.66l204.68 340.01 -74.75 0zm136.79 0c-9,0 -17.76,-2.81 -24.66,-8.07 -6.89,-5.27 -10.5,-13.26 -10.5,-23.68 0,-9.12 4.23,-17.92 12.69,-26.37l235.96 -237.92 -244.26 0 0 -59.1 310.69 0c9.13,0 17.25,2.68 24.42,8.05 7.18,5.38 10.75,13.29 10.75,23.7 0,9.12 -4.22,17.92 -12.7,26.37l-235.94 237.92 247.18 0 0 59.1 -313.63 0zm367.84 0l0 -355.15 317.05 0 0 62.04 -255.48 0 0 231.07 255.97 0 0 62.04 -317.53 0zm107 -154.37l0 -52.27 196.87 0 0 52.27 -196.87 0zm593.53 154.37l-89.88 -98.69 -132.88 0 0 -54.71 148.03 0c22.46,0 39.5,-6.21 50.8,-18.33 11.28,-12.11 17.1,-29.87 17.1,-52.99 0,-23.13 -6.04,-40.42 -17.82,-51.54 -11.78,-11.13 -28.8,-16.86 -50.07,-16.86l-193.45 0 0 293.11 -61.57 0 0 -355.15 255.02 0c20.18,0 38.37,3.1 54.21,9.03 15.87,5.92 29.49,14.67 40.54,25.9 11.06,11.23 19.64,24.95 25.4,40.77 5.77,15.87 8.82,33.88 8.82,53.75 0,29.62 -6.55,54.57 -19.3,74.5 -12.74,19.93 -30.85,34.42 -53.99,43.22l107 107.96 -87.94 0z"/>
 </g>
</svg>
